<svg width="18" height="18" viewBox="0 0 18 18" fill="none" xmlns="http://www.w3.org/2000/svg">
<path d="M16.976 14.064C16.976 14.352 16.912 14.648 16.776 14.936C16.64 15.224 16.464 15.496 16.232 15.752C15.84 16.184 15.408 16.496 14.92 16.696C14.44 16.896 13.92 17 13.36 17C12.544 17 11.672 16.808 10.752 16.416C9.832 16.024 8.912 15.496 8 14.832C7.08 14.16 6.208 13.416 5.376 12.592C4.552 11.76 3.808 10.888 3.144 9.976C2.488 9.064 1.96 8.152 1.576 7.248C1.192 6.336 1 5.464 1 4.632C1 4.088 1.096 3.568 1.288 3.088C1.48 2.6 1.784 2.152 2.208 1.752C2.72 1.248 3.28 1 3.872 1C4.096 1 4.32 1.048 4.52 1.144C4.728 1.24 4.912 1.384 5.056 1.592L6.912 4.208C7.056 4.408 7.16 4.592 7.232 4.768C7.304 4.936 7.344 5.104 7.344 5.256C7.344 5.448 7.288 5.64 7.176 5.824C7.072 6.008 6.92 6.2 6.728 6.392L6.12 7.024C6.032 7.112 5.992 7.216 5.992 7.344C5.992 7.408 6 7.464 6.016 7.528C6.04 7.592 6.064 7.64 6.08 7.688C6.224 7.952 6.472 8.296 6.824 8.712C7.184 9.128 7.568 9.552 7.984 9.976C8.416 10.4 8.832 10.792 9.256 11.152C9.672 11.504 10.016 11.744 10.288 11.888C10.328 11.904 10.376 11.928 10.432 11.952C10.496 11.976 10.56 11.984 10.632 11.984C10.768 11.984 10.872 11.936 10.96 11.848L11.568 11.248C11.768 11.048 11.96 10.896 12.144 10.8C12.328 10.688 12.512 10.632 12.712 10.632C12.864 10.632 13.024 10.664 13.2 10.736C13.376 10.808 13.56 10.912 13.76 11.048L16.408 12.928C16.616 13.072 16.76 13.24 16.848 13.44C16.928 13.64 16.976 13.84 16.976 14.064Z" stroke="#5B5A59" stroke-width="1.5" stroke-miterlimit="10"/>
<path opacity="0.4" d="M14.1999 6.5998C14.1999 6.1198 13.8239 5.3838 13.2639 4.7838C12.7519 4.2318 12.0719 3.7998 11.3999 3.7998" stroke="#5B5A59" stroke-width="1.5" stroke-linecap="round" stroke-linejoin="round"/>
<path opacity="0.4" d="M16.9999 6.6C16.9999 3.504 14.4959 1 11.3999 1" stroke="#5B5A59" stroke-width="1.5" stroke-linecap="round" stroke-linejoin="round"/>
</svg>
