<svg width="29" height="28" viewBox="0 0 29 28" fill="none" xmlns="http://www.w3.org/2000/svg">
<path fill-rule="evenodd" clip-rule="evenodd" d="M14.4074 0C6.4524 0 0 6.42506 0 14.3464C0 20.6834 4.15429 26.0523 9.81119 27.9886C10.5183 28.0766 10.7835 27.6366 10.7835 27.2845C10.7835 26.9324 10.7835 26.0523 10.7835 24.8201C6.80596 25.7002 5.92207 22.8838 5.92207 22.8838C5.30334 21.2115 4.33106 20.7714 4.33106 20.7714C3.00523 19.8913 4.41945 19.8913 4.41945 19.8913C5.83368 19.9793 6.62918 21.3875 6.62918 21.3875C7.95502 23.5879 9.98796 22.9718 10.7835 22.6197C10.8719 21.6516 11.3138 21.0355 11.6674 20.6834C8.48535 20.3314 5.12657 19.0991 5.12657 13.5542C5.12657 11.97 5.6569 10.7378 6.62918 9.6816C6.54079 9.41755 6.01046 7.92131 6.80596 5.98499C6.80596 5.98499 8.0434 5.63293 10.7835 7.48123C11.9325 7.12918 13.17 7.04116 14.4074 7.04116C15.6449 7.04116 16.8823 7.21719 18.0314 7.48123C20.7714 5.63293 22.0089 5.98499 22.0089 5.98499C22.8044 7.92131 22.274 9.41755 22.1857 9.76961C23.0695 10.7378 23.6883 12.058 23.6883 13.6422C23.6883 19.1872 20.3295 20.3314 17.1475 20.6834C17.6778 21.1235 18.1198 22.0036 18.1198 23.3238C18.1198 25.2602 18.1198 26.7564 18.1198 27.2845C18.1198 27.6366 18.3849 28.0766 19.092 27.9886C24.8373 26.0523 28.9032 20.6834 28.9032 14.3464C28.8148 6.42506 22.3624 0 14.4074 0Z" fill="#191822"/>
</svg>
