<svg width="28" height="28" viewBox="0 0 28 28" fill="none" xmlns="http://www.w3.org/2000/svg">
<path fill-rule="evenodd" clip-rule="evenodd" d="M27.9995 14.3182C27.9995 13.3255 27.9086 12.371 27.7397 11.4546H14.2852V16.8701H21.9735C21.6423 18.6201 20.6358 20.1028 19.1228 21.0955V24.6083H23.7397C26.441 22.171 27.9995 18.5819 27.9995 14.3182Z" fill="#4285F4"/>
<path fill-rule="evenodd" clip-rule="evenodd" d="M14.2858 28C18.143 28 21.3767 26.7463 23.7404 24.6081L19.1235 21.0954C17.8442 21.9354 16.2079 22.4318 14.2858 22.4318C10.565 22.4318 7.41565 19.969 6.29227 16.6599H1.51953V20.2872C3.87019 24.8627 8.70137 28 14.2858 28Z" fill="#34A853"/>
<path fill-rule="evenodd" clip-rule="evenodd" d="M6.29222 16.66C6.00651 15.82 5.84417 14.9227 5.84417 14C5.84417 13.0772 6.00651 12.1799 6.29222 11.3399V7.71265H1.51948C0.551949 9.60266 0 11.7408 0 14C0 16.2591 0.551949 18.3973 1.51948 20.2873L6.29222 16.66Z" fill="#FBBC05"/>
<path fill-rule="evenodd" clip-rule="evenodd" d="M14.2858 5.56821C16.3832 5.56821 18.2663 6.27458 19.7469 7.66186L23.8443 3.64638C21.3702 1.38728 18.1365 0 14.2858 0C8.70137 0 3.87019 3.13729 1.51953 7.71277L6.29227 11.3401C7.41565 8.03095 10.565 5.56821 14.2858 5.56821Z" fill="#EA4335"/>
</svg>
