<svg width="28" height="30" viewBox="0 0 28 30" fill="none" xmlns="http://www.w3.org/2000/svg">
<path d="M13.0919 2.03423e-05C7.54964 -0.0185529 -3.11263 12.6868 0.870708 16.0522L1.8489 16.8806C1.58488 17.5885 1.49155 18.3487 1.57649 19.0995C1.6805 20.1396 2.21789 21.1351 3.08711 21.9053C3.91176 22.6358 4.99644 23.0989 6.04892 23.0989C7.78985 27.1107 11.7695 29.5723 16.4326 29.711C21.435 29.8596 25.6362 27.5119 27.3958 23.2946C27.5109 22.9974 28 21.6651 28 20.4875C28 19.3038 27.3314 18.8135 26.9042 18.8135C26.8918 18.7676 26.8076 18.4593 26.6912 18.0879C26.5761 17.7164 26.4559 17.4564 26.4559 17.4564C26.9203 16.7593 26.9289 16.1377 26.867 15.7848C26.8014 15.3477 26.6194 14.9762 26.2529 14.5911C25.8864 14.2061 25.136 13.8111 24.0823 13.5164L23.53 13.3628C23.5276 13.3393 23.5003 12.059 23.4768 11.5092C23.4595 11.113 23.4248 10.4914 23.2329 9.88098C23.0026 9.05385 22.6039 8.32949 22.1049 7.8664C23.4818 6.43998 24.3411 4.86744 24.3386 3.51903C24.3349 0.924967 21.149 0.139939 17.2238 1.76572L16.3917 2.11861C15.8839 1.61978 15.3754 1.12161 14.8663 0.624081C14.3759 0.196897 13.7729 0.00249677 13.0919 2.03423e-05ZM13.1823 1.08098C13.3878 1.08098 13.581 1.10451 13.7581 1.1528C14.1258 1.25681 15.343 2.66837 15.343 2.66837C15.343 2.66837 13.082 3.92269 10.9844 5.67228C8.16132 7.84783 6.0254 11.0102 4.74756 14.4413C3.74337 14.637 2.85804 15.2065 2.31694 15.9928C1.99377 15.7229 1.39076 15.2003 1.28427 14.9973C0.419998 13.3554 2.22655 10.1658 3.48953 8.36416C6.36467 4.25948 10.743 1.07355 13.1823 1.08098ZM17.2511 5.13366C17.3006 5.13118 17.3253 5.19557 17.2857 5.22529C17.1087 5.36149 16.9155 5.54722 16.7743 5.73791C16.7689 5.74518 16.7655 5.75382 16.7647 5.76287C16.7638 5.77193 16.7654 5.78105 16.7694 5.78923C16.7733 5.79742 16.7795 5.80435 16.7871 5.80928C16.7948 5.8142 16.8036 5.81693 16.8127 5.81715C17.6287 5.82211 18.7778 6.10813 19.5269 6.52789C19.5777 6.55637 19.5418 6.65543 19.4848 6.64181C18.3518 6.38178 16.4957 6.1849 14.5691 6.65419C12.848 7.07518 11.5355 7.72277 10.5771 8.41988C10.5275 8.45455 10.4706 8.3914 10.509 8.34559C11.6184 7.06404 12.9842 5.94964 14.2075 5.32435C14.2496 5.30206 14.2942 5.34787 14.2719 5.38873C14.1741 5.5658 13.9871 5.94221 13.9277 6.22824C13.919 6.27158 13.9673 6.30625 14.0045 6.28025C14.766 5.7602 16.0896 5.20548 17.2511 5.13366ZM20.9942 9.10214L21.0635 9.10338C21.2646 9.1113 21.4598 9.17379 21.6281 9.28416C22.2894 9.72372 22.3835 10.7898 22.4181 11.5687C22.4367 12.0144 22.4912 13.0904 22.5098 13.3987C22.5519 14.1058 22.7376 14.2048 23.1128 14.3286C23.3233 14.3992 23.5214 14.45 23.8099 14.5317C24.6841 14.7769 25.2029 15.027 25.531 15.3465C25.7254 15.547 25.8158 15.7588 25.8443 15.9619C25.947 16.7147 25.2598 17.6458 23.4397 18.489C21.4498 19.4128 19.0353 19.6468 17.3674 19.461L16.7842 19.3954C15.4495 19.2159 14.688 20.9395 15.4891 22.1207C16.0054 22.8822 17.4108 23.3775 18.8174 23.3775C22.0417 23.3775 24.5194 22.0019 25.4418 20.8119C25.4684 20.7782 25.4932 20.7431 25.5161 20.7067C25.5607 20.6386 25.5236 20.6014 25.4666 20.6398C24.7138 21.1549 21.3681 23.2017 17.7897 22.5851C17.7897 22.5851 17.3551 22.5145 16.9576 22.3597C16.6419 22.2359 15.9819 21.9338 15.9014 21.2565C18.7902 22.148 20.6079 21.3047 20.6079 21.3047C20.6247 21.2971 20.6388 21.2844 20.6481 21.2685C20.6574 21.2525 20.6615 21.234 20.6599 21.2156C20.6588 21.2047 20.6555 21.1941 20.6503 21.1844C20.6451 21.1748 20.6381 21.1662 20.6296 21.1593C20.621 21.1524 20.6112 21.1473 20.6007 21.1442C20.5902 21.1411 20.5791 21.1401 20.5682 21.1413C20.5682 21.1413 18.202 21.4917 15.9646 20.6733C16.2085 19.8808 16.8561 20.1681 17.8343 20.2461C19.3562 20.3363 20.8825 20.1714 22.35 19.7582C23.3629 19.4685 24.6927 18.8952 25.7266 18.0792C26.0746 18.8444 26.1972 19.6876 26.1972 19.6876C26.1972 19.6876 26.4683 19.6381 26.6924 19.778C26.9067 19.9093 27.0627 20.1817 26.9562 20.8862C26.7383 22.2025 26.1786 23.271 25.2388 24.2542C24.6511 24.8895 23.952 25.4116 23.1759 25.7945C22.7549 26.0174 22.3042 26.2081 21.83 26.3641C18.285 27.5218 14.6558 26.2489 13.4856 23.5162C13.3909 23.3072 13.3126 23.0911 13.2516 22.8699C12.7526 21.0683 13.1773 18.9076 14.4997 17.5468C14.5802 17.4601 14.6632 17.3573 14.6632 17.2298C14.6632 17.1221 14.5951 17.0081 14.5369 16.9289C14.0738 16.2565 12.4703 15.1137 12.7922 12.8997C13.0238 11.3099 14.4143 10.1893 15.7107 10.2562C15.8209 10.2611 15.9299 10.2685 16.0401 10.2747C16.601 10.3082 17.0926 10.38 17.5544 10.3986C18.3283 10.4332 19.0242 10.3205 19.8488 9.63333C20.1274 9.40179 20.3503 9.19996 20.728 9.13681C20.7626 9.13062 20.8419 9.10214 20.9942 9.10214ZM21.0214 11.8014C20.9965 11.8017 20.9717 11.8038 20.9471 11.8076C20.5323 11.8745 20.5175 12.3871 20.6648 13.0954C20.749 13.4916 20.8964 13.8321 21.061 14.0426C21.2777 14.0179 21.4858 14.0154 21.6777 14.0426C21.7879 13.7888 21.8064 13.3529 21.7074 12.8762C21.5687 12.2138 21.3842 11.7965 21.0214 11.8014ZM16.4896 13.7157C16.0381 13.7139 15.5976 13.8552 15.2315 14.1194C15.0334 14.2643 14.8464 14.4661 14.8724 14.5874C14.8823 14.6271 14.9108 14.6568 14.9814 14.6654C15.1436 14.684 15.7144 14.3967 16.3707 14.3559C16.8338 14.3274 17.2176 14.4723 17.5136 14.6035C17.8095 14.7323 17.9915 14.8177 18.0621 14.7434C18.1079 14.6964 18.0943 14.6072 18.0237 14.4909C17.8776 14.2531 17.5779 14.0117 17.2585 13.8755C17.0154 13.7715 16.754 13.7172 16.4896 13.7157ZM21.5439 14.7187C21.3322 14.715 21.1564 14.949 21.1514 15.2387C21.1465 15.531 21.3136 15.7712 21.5266 15.7736C21.7396 15.7774 21.9154 15.5446 21.9204 15.2536C21.9253 14.9614 21.7569 14.7224 21.5439 14.7187ZM17.1111 14.9317C17.0492 14.9317 16.9848 14.9341 16.9192 14.9416C16.5341 15.0035 16.3212 15.1298 16.185 15.2474C16.0686 15.3489 15.9967 15.4616 15.9967 15.5409C15.9966 15.5532 15.9989 15.5654 16.0035 15.5768C16.008 15.5882 16.0149 15.5986 16.0235 15.6073C16.0321 15.6161 16.0424 15.623 16.0538 15.6278C16.0651 15.6325 16.0773 15.635 16.0896 15.635C16.1763 15.635 16.3719 15.557 16.3719 15.557C16.7671 15.408 17.194 15.3636 17.6114 15.4282C17.8058 15.4505 17.8962 15.4616 17.9395 15.396C17.9519 15.3762 17.9667 15.3353 17.9271 15.2722C17.8491 15.1446 17.5433 14.9391 17.1111 14.9317ZM19.9095 15.4269C19.7523 15.4269 19.6185 15.4901 19.5591 15.6102C19.4662 15.8009 19.6024 16.0597 19.8637 16.1872C20.1237 16.316 20.4122 16.2652 20.5076 16.0758C20.6004 15.8838 20.4642 15.6251 20.203 15.4975C20.1119 15.4516 20.0115 15.4283 19.9095 15.4269ZM5.50287 15.4567C5.56231 15.4567 5.62422 15.4567 5.68737 15.4604C6.59126 15.5099 7.92358 16.2033 8.22818 18.1721C8.49688 19.9179 8.06969 21.6923 6.43401 21.9721C6.28171 21.9969 6.12693 22.0081 5.97092 22.0043C4.46029 21.9635 2.82709 20.6027 2.66488 18.9893C2.48534 17.2063 3.39667 15.8343 5.01006 15.5087C5.15493 15.4789 5.32209 15.4591 5.50287 15.4567ZM5.4162 16.6045C5.21968 16.6027 5.02496 16.6419 4.8444 16.7195C4.66385 16.7971 4.50141 16.9114 4.36743 17.0552C3.89691 17.5728 3.82385 18.2786 3.91424 18.5287C3.94767 18.6191 4.00092 18.6451 4.03806 18.65C4.11731 18.6599 4.23618 18.6017 4.31047 18.4024C4.31798 18.3811 4.32499 18.3596 4.33152 18.338C4.37655 18.1776 4.44188 18.0237 4.52592 17.8798C4.5873 17.7859 4.6666 17.705 4.75928 17.6418C4.85196 17.5786 4.95621 17.5342 5.06605 17.5113C5.17589 17.4885 5.28917 17.4875 5.3994 17.5084C5.50962 17.5294 5.61463 17.5718 5.70842 17.6334C6.03778 17.8489 6.16532 18.2525 6.02416 18.6364C5.95234 18.8357 5.83348 19.2171 5.85948 19.5291C5.91272 20.1619 6.30152 20.417 6.65194 20.443C6.99121 20.4553 7.22894 20.2659 7.28962 20.126C7.32552 20.043 7.29581 19.9935 7.276 19.9712C7.22275 19.9056 7.13608 19.9254 7.05312 19.9452C6.9885 19.9626 6.92193 19.9718 6.855 19.9724C6.7839 19.9744 6.71341 19.9587 6.64987 19.9267C6.58634 19.8947 6.53173 19.8475 6.49097 19.7892C6.39439 19.6406 6.40058 19.4177 6.50706 19.1651C6.52068 19.1304 6.53802 19.0933 6.55659 19.0512C6.72747 18.6698 7.01226 18.0297 6.6928 17.4205C6.45134 16.9623 6.05759 16.6751 5.58583 16.6156C5.52918 16.608 5.47211 16.6039 5.41496 16.6032L5.4162 16.6045Z" fill="black"/>
</svg>
