<svg width="28" height="28" viewBox="0 0 28 28" fill="none" xmlns="http://www.w3.org/2000/svg">
<path d="M5.90409 17.7005C5.90409 19.3279 4.58986 20.6431 2.96377 20.6431C1.33768 20.6431 0.0234375 19.3279 0.0234375 17.7005C0.0234375 16.0731 1.33768 14.7578 2.96377 14.7578H5.90409V17.7005Z" fill="#E01E5A"/>
<path d="M7.375 17.7005C7.375 16.0731 8.68924 14.7578 10.3153 14.7578C11.9414 14.7578 13.2557 16.0731 13.2557 17.7005V25.0571C13.2557 26.6845 11.9414 27.9998 10.3153 27.9998C8.68924 27.9998 7.375 26.6845 7.375 25.0571V17.7005Z" fill="#E01E5A"/>
<path d="M10.3153 5.88533C8.68924 5.88533 7.375 4.57005 7.375 2.94267C7.375 1.31528 8.68924 0 10.3153 0C11.9414 0 13.2557 1.31528 13.2557 2.94267V5.88533H10.3153Z" fill="#36C5F0"/>
<path d="M10.3134 7.37891C11.9395 7.37891 13.2538 8.69419 13.2538 10.3216C13.2538 11.949 11.9395 13.2642 10.3134 13.2642H2.94033C1.31424 13.2642 0 11.949 0 10.3216C0 8.69419 1.31424 7.37891 2.94033 7.37891H10.3134Z" fill="#36C5F0"/>
<path d="M22.0977 10.3216C22.0977 8.69419 23.4119 7.37891 25.038 7.37891C26.6641 7.37891 27.9783 8.69419 27.9783 10.3216C27.9783 11.949 26.6641 13.2642 25.038 13.2642H22.0977V10.3216Z" fill="#2EB67D"/>
<path d="M20.6268 10.3216C20.6268 11.949 19.3125 13.2643 17.6864 13.2643C16.0603 13.2643 14.7461 11.949 14.7461 10.3216V2.94267C14.7461 1.31528 16.0603 0 17.6864 0C19.3125 0 20.6268 1.31528 20.6268 2.94267V10.3216Z" fill="#2EB67D"/>
<path d="M17.6864 22.1147C19.3125 22.1147 20.6268 23.43 20.6268 25.0574C20.6268 26.6848 19.3125 28.0001 17.6864 28.0001C16.0603 28.0001 14.7461 26.6848 14.7461 25.0574V22.1147H17.6864Z" fill="#ECB22E"/>
<path d="M17.6864 20.6431C16.0603 20.6431 14.7461 19.3279 14.7461 17.7005C14.7461 16.0731 16.0603 14.7578 17.6864 14.7578H25.0595C26.6856 14.7578 27.9998 16.0731 27.9998 17.7005C27.9998 19.3279 26.6856 20.6431 25.0595 20.6431H17.6864Z" fill="#ECB22E"/>
</svg>
