<svg width="20" height="20" viewBox="0 0 20 20" fill="none" xmlns="http://www.w3.org/2000/svg">
<path fill-rule="evenodd" clip-rule="evenodd" d="M9.98576 0.237078C9.98576 0.237078 15.7099 -0.0198272 18.7446 5.73379H9.49871C9.49871 5.73379 7.7539 5.67759 6.26331 7.79439C5.83513 8.68285 5.37484 9.59808 5.89133 11.4018C5.14737 10.1413 1.94141 4.55898 1.94141 4.55898C1.94141 4.55898 4.20271 0.464547 9.98576 0.237078V0.237078V0.237078Z" fill="#EF3F36"/>
<path fill-rule="evenodd" clip-rule="evenodd" d="M18.4475 14.8431C18.4475 14.8431 15.8062 19.9304 9.30859 19.6788C10.1114 18.2899 13.9329 11.6719 13.9329 11.6719C13.9329 11.6719 14.8562 10.1894 13.767 7.83976C13.213 7.02354 12.6484 6.16987 10.8286 5.71493C12.2924 5.70155 18.7285 5.71493 18.7285 5.71493C18.7285 5.71493 21.1396 9.72105 18.4475 14.8431V14.8431V14.8431Z" fill="#FCD900"/>
<path fill-rule="evenodd" clip-rule="evenodd" d="M1.5615 14.8835C1.5615 14.8835 -1.52404 10.0531 1.94419 4.55103C2.74434 5.93992 6.56581 12.5579 6.56581 12.5579C6.56581 12.5579 7.39005 14.0994 9.96714 14.3295C10.9493 14.2572 11.9715 14.1957 13.2775 12.8496C12.5576 14.1234 9.32755 19.6897 9.32755 19.6897C9.32755 19.6897 4.64972 19.7754 1.5615 14.8835V14.8835V14.8835Z" fill="#61BC5B"/>
<path fill-rule="evenodd" clip-rule="evenodd" d="M9.30469 19.727L10.6053 14.2999C10.6053 14.2999 12.0343 14.1875 13.2332 12.8735C12.4892 14.1821 9.30469 19.727 9.30469 19.727V19.727V19.727Z" fill="#5AB055"/>
<path fill-rule="evenodd" clip-rule="evenodd" d="M5.62891 10.0423C5.62891 7.64989 7.56908 5.70972 9.96151 5.70972C12.3539 5.70972 14.2941 7.64989 14.2941 10.0423C14.2941 12.4348 12.3539 14.3749 9.96151 14.3749C7.56908 14.3723 5.62891 12.4348 5.62891 10.0423V10.0423V10.0423Z" fill="white"/>
<path fill-rule="evenodd" clip-rule="evenodd" d="M6.35547 10.0422C6.35547 8.05118 7.96916 6.43481 9.96285 6.43481C11.9539 6.43481 13.5702 8.0485 13.5702 10.0422C13.5702 12.0332 11.9565 13.6496 9.96285 13.6496C7.97183 13.6496 6.35547 12.0332 6.35547 10.0422V10.0422V10.0422Z" fill="url(#paint0_linear_131_17532)"/>
<path fill-rule="evenodd" clip-rule="evenodd" d="M18.7241 5.71768L13.3692 7.28855C13.3692 7.28855 12.561 6.10304 10.8242 5.71768C12.3309 5.70965 18.7241 5.71768 18.7241 5.71768V5.71768V5.71768Z" fill="#EACA05"/>
<path fill-rule="evenodd" clip-rule="evenodd" d="M5.78696 11.2036C5.03498 9.90033 1.94141 4.55884 1.94141 4.55884L5.90739 8.482C5.90739 8.482 5.50062 9.31962 5.65316 10.5185L5.78696 11.2036V11.2036V11.2036Z" fill="#DF3A32"/>
<defs>
<linearGradient id="paint0_linear_131_17532" x1="6.48935" y1="6.48574" x2="6.48935" y2="13.4324" gradientUnits="userSpaceOnUse">
<stop stop-color="#86BBE5"/>
<stop offset="1" stop-color="#1072BA"/>
</linearGradient>
</defs>
</svg>
